<svg xmlns="http://www.w3.org/2000/svg" width="805" height="600"><rect width="805" height="600" x="0" y="0" fill="#FFFFFF" id="backgorund"/><g transform="translate(10,10)" id="visualization"><g><rect x="390" y="0" height="0.33995416348358276" width="5" fill="black"><title>5 9: 1</title></rect><rect x="390" y="5.339954163483583" height="0.3399541634835259" width="5" fill="black"><title>8 10: 1</title></rect><rect x="390" y="10.679908326967109" height="0.3399541634835259" width="5" fill="black"><title>13 15 B: 1</title></rect><rect x="390" y="16.019862490450635" height="0.3399541634835259" width="5" fill="black"><title>15 16: 1</title></rect><rect x="390" y="21.35981665393416" height="0.6799083269671655" width="5" fill="black"><title>5 7: 2</title></rect><rect x="390" y="27.039724980901326" height="0.6799083269671655" width="5" fill="black"><title>C D: 2</title></rect><rect x="390" y="32.71963330786849" height="0.6799083269671655" width="5" fill="black"><title>13 15: 2</title></rect><rect x="390" y="38.39954163483566" height="1.699770817417857" width="5" fill="black"><title>1: 5</title></rect><rect x="390" y="45.099312452253514" height="3.059587471352188" width="5" fill="black"><title>B: 9</title></rect><rect x="390" y="53.1588999236057" height="3.7394957983193535" width="5" fill="black"><title>A: 11</title></rect><rect x="390" y="61.898395721925056" height="4.419404125286476" width="5" fill="black"><title>2: 13</title></rect><rect x="390" y="71.31779984721153" height="6.459129106187902" width="5" fill="black"><title>12: 19</title></rect><rect x="390" y="82.77692895339943" height="6.799083269671485" width="5" fill="black"><title>D: 20</title></rect><rect x="390" y="94.57601222307092" height="6.799083269671485" width="5" fill="black"><title>6: 20</title></rect><rect x="390" y="106.3750954927424" height="7.818945760122233" width="5" fill="black"><title>8: 23</title></rect><rect x="390" y="119.19404125286464" height="7.818945760122233" width="5" fill="black"><title>7: 23</title></rect><rect x="390" y="132.01298701298686" height="7.818945760122233" width="5" fill="black"><title>16: 23</title></rect><rect x="390" y="144.8319327731091" height="8.49885408708937" width="5" fill="black"><title>11: 25</title></rect><rect x="390" y="158.33078686019846" height="8.498854087089398" width="5" fill="black"><title>9: 25</title></rect><rect x="390" y="171.82964094728786" height="8.838808250572981" width="5" fill="black"><title>3: 26</title></rect><rect x="390" y="185.66844919786084" height="9.178762414056507" width="5" fill="black"><title>5: 27</title></rect><rect x="390" y="199.84721161191734" height="9.858670741023673" width="5" fill="black"><title>10: 29</title></rect><rect x="390" y="214.70588235294102" height="10.538579067990838" width="5" fill="black"><title>4: 31</title></rect><rect x="390" y="230.24446142093186" height="11.218487394958004" width="5" fill="black"><title>14: 33</title></rect><rect x="390" y="246.46294881588986" height="12.578304048892363" width="5" fill="black"><title>15: 37</title></rect><rect x="390" y="264.0412528647822" height="12.91825821237586" width="5" fill="black"><title>C: 38</title></rect><rect x="390" y="281.9595110771581" height="13.258212375859443" width="5" fill="black"><title>13: 39</title></rect><rect x="0" y="62.5" height="94.16730328495035" width="5" fill="black"><title>2: 277</title></rect><rect x="0" y="161.66730328495035" height="109.80519480519482" width="5" fill="black"><title>1: 323</title></rect><rect x="780" y="65.00000000000003" height="169.97708174178763" width="5" fill="black"><title>yes: 500</title></rect><rect x="0" y="276.47249809014517" height="241.02750190985483" width="5" fill="black"><title>3: 709</title></rect><rect x="780" y="239.97708174178766" height="275.02291825821237" width="5" fill="black"><title>no: 809</title></rect><rect x="390" y="300.2177234530175" height="279.7822765469825" width="5" fill="black"><title>: 823</title></rect></g><g fill="none" stroke-opacity="0.6"><g style="mix-blend-mode: multiply;"><path d="M5,167.9564553093965C197.5,167.9564553093965,197.5,63.08823529411757,390,63.08823529411757" stroke="#1a535c" stroke-width="2.379679144385027"/><title>1 → 2: 7</title></g><g style="mix-blend-mode: multiply;"><path d="M5,194.98281130634072C197.5,194.98281130634072,197.5,150.61115355232985,390,150.61115355232985" stroke="#1a535c" stroke-width="2.0397249809014517"/><title>1 → 11: 6</title></g><g style="mix-blend-mode: multiply;"><path d="M5,250.73529411764707C197.5,250.73529411764707,197.5,377.0473644003055,390,377.0473644003055" stroke="#1a535c" stroke-width="41.47440794499618"/><title>1 → : 122</title></g><g style="mix-blend-mode: multiply;"><path d="M5,202.46180290297937C197.5,202.46180290297937,197.5,176.24904507257435,390,176.24904507257435" stroke="#1a535c" stroke-width="8.838808250572956"/><title>1 → 3: 26</title></g><g style="mix-blend-mode: multiply;"><path d="M5,217.41978609625667C197.5,217.41978609625667,197.5,206.30634071810528,390,206.30634071810528" stroke="#1a535c" stroke-width="2.719633307868602"/><title>1 → 10: 8</title></g><g style="mix-blend-mode: multiply;"><path d="M5,170.6760886172651C197.5,170.6760886172651,197.5,84.98663101604268,390,84.98663101604268" stroke="#1a535c" stroke-width="3.0595874713521773"/><title>1 → D: 9</title></g><g style="mix-blend-mode: multiply;"><path d="M5,222.85905271199388C197.5,222.85905271199388,197.5,221.16501145912895,390,221.16501145912895" stroke="#1a535c" stroke-width="8.158899923605807"/><title>1 → 4: 24</title></g><g style="mix-blend-mode: multiply;"><path d="M5,197.02253628724216C197.5,197.02253628724216,197.5,164.7899159663864,390,164.7899159663864" stroke="#1a535c" stroke-width="2.0397249809014517"/><title>1 → 9: 6</title></g><g style="mix-blend-mode: multiply;"><path d="M5,175.43544690603517C197.5,175.43544690603517,197.5,97.80557677616488,390,97.80557677616488" stroke="#1a535c" stroke-width="6.45912910618793"/><title>1 → 6: 19</title></g><g style="mix-blend-mode: multiply;"><path d="M5,165.2368220015279C197.5,165.2368220015279,197.5,45.94919786096245,390,45.94919786096245" stroke="#1a535c" stroke-width="1.0198624904507259"/><title>1 → B: 3</title></g><g style="mix-blend-mode: multiply;"><path d="M5,182.57448433919024C197.5,182.57448433919024,197.5,110.28456837280352,390,110.28456837280352" stroke="#1a535c" stroke-width="7.818945760122231"/><title>1 → 8: 23</title></g><g style="mix-blend-mode: multiply;"><path d="M5,166.25668449197863C197.5,166.25668449197863,197.5,53.66883116883106,390,53.66883116883106" stroke="#1a535c" stroke-width="1.0198624904507259"/><title>1 → A: 3</title></g><g style="mix-blend-mode: multiply;"><path d="M5,211.4705882352941C197.5,211.4705882352941,197.5,190.2578304048891,390,190.2578304048891" stroke="#1a535c" stroke-width="9.178762414056532"/><title>1 → 5: 27</title></g><g style="mix-blend-mode: multiply;"><path d="M5,190.22345301757068C197.5,190.22345301757068,197.5,123.27349121466753,390,123.27349121466753" stroke="#1a535c" stroke-width="7.4789915966386555"/><title>1 → 7: 22</title></g><g style="mix-blend-mode: multiply;"><path d="M5,229.31818181818184C197.5,229.31818181818184,197.5,264.3812070282658,390,264.3812070282658" stroke="#1a535c" stroke-width="1"/><title>1 → C: 2</title></g><g style="mix-blend-mode: multiply;"><path d="M5,227.78838808250572C197.5,227.78838808250572,197.5,238.91329258976302,390,238.91329258976302" stroke="#1a535c" stroke-width="1.6997708174178763"/><title>1 → 14: 5</title></g><g style="mix-blend-mode: multiply;"><path d="M5,161.83728036669214C197.5,161.83728036669214,197.5,0.16997708174178763,390,0.16997708174178763" stroke="#1a535c" stroke-width="1"/><title>1 → 5 9: 1</title></g><g style="mix-blend-mode: multiply;"><path d="M5,229.8281130634072C197.5,229.8281130634072,197.5,286.2089381207027,390,286.2089381207027" stroke="#1a535c" stroke-width="1"/><title>1 → 13: 1</title></g><g style="mix-blend-mode: multiply;"><path d="M5,163.87700534759358C197.5,163.87700534759358,197.5,39.24942704354459,390,39.24942704354459" stroke="#1a535c" stroke-width="1.6997708174178763"/><title>1 → 1: 5</title></g><g style="mix-blend-mode: multiply;"><path d="M5,228.80825057295647C197.5,228.80825057295647,197.5,246.97288006111523,390,246.97288006111523" stroke="#1a535c" stroke-width="1"/><title>1 → 15: 1</title></g><g style="mix-blend-mode: multiply;"><path d="M5,162.6871657754011C197.5,162.6871657754011,197.5,21.699770817417736,390,21.699770817417736" stroke="#1a535c" stroke-width="1"/><title>1 → 5 7: 2</title></g><g style="mix-blend-mode: multiply;"><path d="M5,162.17723453017572C197.5,162.17723453017572,197.5,5.509931245225371,390,5.509931245225371" stroke="#1a535c" stroke-width="1"/><title>1 → 8 10: 1</title></g><g style="mix-blend-mode: multiply;"><path d="M5,128.6210847975554C197.5,128.6210847975554,197.5,328.2639419404125,390,328.2639419404125" stroke="#9ebf9e" stroke-width="56.09243697478992"/><title>2 → : 165</title></g><g style="mix-blend-mode: multiply;"><path d="M5,83.40718105423989C197.5,83.40718105423989,197.5,202.39686783804416,390,202.39686783804416" stroke="#9ebf9e" stroke-width="5.099312452253629"/><title>2 → 10: 15</title></g><g style="mix-blend-mode: multiply;"><path d="M5,73.03857906799082C197.5,73.03857906799082,197.5,147.2116119174941,390,147.2116119174941" stroke="#9ebf9e" stroke-width="4.759358288770054"/><title>2 → 11: 14</title></g><g style="mix-blend-mode: multiply;"><path d="M5,98.53514132925898C197.5,98.53514132925898,197.5,283.9992360580595,390,283.9992360580595" stroke="#9ebf9e" stroke-width="4.079449961802903"/><title>2 → 13: 12</title></g><g style="mix-blend-mode: multiply;"><path d="M5,65.72956455309397C197.5,65.72956455309397,197.5,74.20741023682193,390,74.20741023682193" stroke="#9ebf9e" stroke-width="5.77922077922078"/><title>2 → 12: 17</title></g><g style="mix-blend-mode: multiply;"><path d="M5,92.24598930481284C197.5,92.24598930481284,197.5,234.15393430099297,390,234.15393430099297" stroke="#9ebf9e" stroke-width="7.818945760122231"/><title>2 → 14: 23</title></g><g style="mix-blend-mode: multiply;"><path d="M5,78.13789152024447C197.5,78.13789152024447,197.5,161.05042016806706,390,161.05042016806706" stroke="#9ebf9e" stroke-width="5.439266615737204"/><title>2 → 9: 16</title></g><g style="mix-blend-mode: multiply;"><path d="M5,70.14896867838044C197.5,70.14896867838044,197.5,132.52291825821223,390,132.52291825821223" stroke="#9ebf9e" stroke-width="1.0198624904507259"/><title>2 → 16: 3</title></g><g style="mix-blend-mode: multiply;"><path d="M5,87.14667685255921C197.5,87.14667685255921,197.5,215.89572192513353,390,215.89572192513353" stroke="#9ebf9e" stroke-width="2.379679144385027"/><title>2 → 4: 7</title></g><g style="mix-blend-mode: multiply;"><path d="M5,96.32543926661575C197.5,96.32543926661575,197.5,246.63292589763165,390,246.63292589763165" stroke="#9ebf9e" stroke-width="1"/><title>2 → 15: 1</title></g><g style="mix-blend-mode: multiply;"><path d="M5,62.669977081741784C197.5,62.669977081741784,197.5,45.2692895339953,390,45.2692895339953" stroke="#9ebf9e" stroke-width="1"/><title>2 → B: 1</title></g><g style="mix-blend-mode: multiply;"><path d="M5,68.95912910618793C197.5,68.95912910618793,197.5,83.116883116883,390,83.116883116883" stroke="#9ebf9e" stroke-width="1"/><title>2 → D: 2</title></g><g style="mix-blend-mode: multiply;"><path d="M5,69.4690603514133C197.5,69.4690603514133,197.5,119.36401833460643,390,119.36401833460643" stroke="#9ebf9e" stroke-width="1"/><title>2 → 7: 1</title></g><g style="mix-blend-mode: multiply;"><path d="M5,426.39228418640187C197.5,426.39228418640187,197.5,488.8922841864018,390,488.8922841864018" stroke="#ffe66d" stroke-width="182.21543162719635"/><title>3 → : 536</title></g><g style="mix-blend-mode: multiply;"><path d="M5,281.5718105423988C197.5,281.5718105423988,197.5,55.53857906799073,390,55.53857906799073" stroke="#ffe66d" stroke-width="2.719633307868602"/><title>3 → A: 8</title></g><g style="mix-blend-mode: multiply;"><path d="M5,292.45034377387327C197.5,292.45034377387327,197.5,136.43239113827332,390,136.43239113827332" stroke="#ffe66d" stroke-width="6.799083269671505"/><title>3 → 16: 20</title></g><g style="mix-blend-mode: multiply;"><path d="M5,308.25821237585944C197.5,308.25821237585944,197.5,253.09205500381958,390,253.09205500381958" stroke="#ffe66d" stroke-width="11.898395721925134"/><title>3 → 15: 35</title></g><g style="mix-blend-mode: multiply;"><path d="M5,320.3265851795264C197.5,320.3265851795264,197.5,270.84033613445376,390,270.84033613445376" stroke="#ffe66d" stroke-width="12.23834988540871"/><title>3 → C: 36</title></g><g style="mix-blend-mode: multiply;"><path d="M5,296.6997708174179C197.5,296.6997708174179,197.5,152.4809014514895,390,152.4809014514895" stroke="#ffe66d" stroke-width="1.6997708174178763"/><title>3 → 11: 5</title></g><g style="mix-blend-mode: multiply;"><path d="M5,330.86516424751716C197.5,330.86516424751716,197.5,290.798319327731,390,290.798319327731" stroke="#ffe66d" stroke-width="8.838808250572956"/><title>3 → 13: 26</title></g><g style="mix-blend-mode: multiply;"><path d="M5,287.1810542398778C197.5,287.1810542398778,197.5,88.04621848739485,390,88.04621848739485" stroke="#ffe66d" stroke-width="3.0595874713521773"/><title>3 → D: 9</title></g><g style="mix-blend-mode: multiply;"><path d="M5,285.31130634071815C197.5,285.31130634071815,197.5,77.43697478991588,390,77.43697478991588" stroke="#ffe66d" stroke-width="1"/><title>3 → 12: 2</title></g><g style="mix-blend-mode: multiply;"><path d="M5,283.9514896867839C197.5,283.9514896867839,197.5,65.2979373567608,390,65.2979373567608" stroke="#ffe66d" stroke-width="2.0397249809014517"/><title>3 → 2: 6</title></g><g style="mix-blend-mode: multiply;"><path d="M5,276.64247517188693C197.5,276.64247517188693,197.5,10.849885408708897,390,10.849885408708897" stroke="#ffe66d" stroke-width="1"/><title>3 → 13 15 B: 1</title></g><g style="mix-blend-mode: multiply;"><path d="M5,299.58938120702834C197.5,299.58938120702834,197.5,208.6860198624903,390,208.6860198624903" stroke="#ffe66d" stroke-width="2.0397249809014517"/><title>3 → 10: 6</title></g><g style="mix-blend-mode: multiply;"><path d="M5,279.3621084797556C197.5,279.3621084797556,197.5,47.30901451489675,390,47.30901451489675" stroke="#ffe66d" stroke-width="1.6997708174178763"/><title>3 → B: 5</title></g><g style="mix-blend-mode: multiply;"><path d="M5,277.4923605805959C197.5,277.4923605805959,197.5,27.3796791443849,390,27.3796791443849" stroke="#ffe66d" stroke-width="1"/><title>3 → C D: 2</title></g><g style="mix-blend-mode: multiply;"><path d="M5,301.45912910618796C197.5,301.45912910618796,197.5,240.6130634071809,390,240.6130634071809" stroke="#ffe66d" stroke-width="1.6997708174178763"/><title>3 → 14: 5</title></g><g style="mix-blend-mode: multiply;"><path d="M5,288.8808250572957C197.5,288.8808250572957,197.5,101.20511841100064,390,101.20511841100064" stroke="#ffe66d" stroke-width="1"/><title>3 → 6: 1</title></g><g style="mix-blend-mode: multiply;"><path d="M5,276.9824293353705C197.5,276.9824293353705,197.5,16.189839572192422,390,16.189839572192422" stroke="#ffe66d" stroke-width="1"/><title>3 → 15 16: 1</title></g><g style="mix-blend-mode: multiply;"><path d="M5,298.0595874713522C197.5,298.0595874713522,197.5,166.31970970206248,390,166.31970970206248" stroke="#ffe66d" stroke-width="1.0198624904507259"/><title>3 → 9: 3</title></g><g style="mix-blend-mode: multiply;"><path d="M5,278.1722689075631C197.5,278.1722689075631,197.5,33.05958747135207,390,33.05958747135207" stroke="#ffe66d" stroke-width="1"/><title>3 → 13 15: 2</title></g><g style="mix-blend-mode: multiply;"><path d="M395,64.1080977845683C587.5,64.1080977845683,587.5,77.4083269671505,780,77.4083269671505" stroke="#cccccc" stroke-width="4.419404125286478"/><title>2 → yes: 13</title></g><g style="mix-blend-mode: multiply;"><path d="M395,149.0813598166538C587.5,149.0813598166538,587.5,126.7016806722689,780,126.7016806722689" stroke="#d62728" stroke-width="8.498854087089383"/><title>11 → yes: 25</title></g><g style="mix-blend-mode: multiply;"><path d="M395,444.01833460656985C587.5,444.01833460656985,587.5,379.01833460656997,780,379.01833460656997" stroke="#1f77b4" stroke-width="271.96333078686024"/><title> → no: 800</title></g><g style="mix-blend-mode: multiply;"><path d="M395,176.24904507257435C587.5,176.24904507257435,587.5,143.86936592818947,780,143.86936592818947" stroke="#cccccc" stroke-width="8.838808250572956"/><title>3 → yes: 26</title></g><g style="mix-blend-mode: multiply;"><path d="M395,204.77654698242918C587.5,204.77654698242918,587.5,162.3968678380443,780,162.3968678380443" stroke="#2ca02c" stroke-width="9.858670741023683"/><title>10 → yes: 29</title></g><g style="mix-blend-mode: multiply;"><path d="M395,86.0064935064934C587.5,86.0064935064934,587.5,88.96676852559206,780,88.96676852559206" stroke="#cccccc" stroke-width="6.45912910618793"/><title>D → yes: 19</title></g><g style="mix-blend-mode: multiply;"><path d="M395,219.97517188693644C587.5,219.97517188693644,587.5,172.59549274255156,780,172.59549274255156" stroke="#cccccc" stroke-width="10.538579067990833"/><title>4 → yes: 31</title></g><g style="mix-blend-mode: multiply;"><path d="M395,162.58021390374316C587.5,162.58021390374316,587.5,135.2005347593583,780,135.2005347593583" stroke="#cccccc" stroke-width="8.498854087089383"/><title>9 → yes: 25</title></g><g style="mix-blend-mode: multiply;"><path d="M395,97.97555385790668C587.5,97.97555385790668,587.5,95.59587471352178,780,95.59587471352178" stroke="#cccccc" stroke-width="6.799083269671505"/><title>6 → yes: 20</title></g><g style="mix-blend-mode: multiply;"><path d="M395,46.45912910618782C587.5,46.45912910618782,587.5,71.45912910618793,780,71.45912910618793" stroke="#cccccc" stroke-width="2.719633307868602"/><title>B → yes: 8</title></g><g style="mix-blend-mode: multiply;"><path d="M395,110.28456837280352C587.5,110.28456837280352,587.5,102.90488922841864,780,102.90488922841864" stroke="#cccccc" stroke-width="7.818945760122231"/><title>8 → yes: 23</title></g><g style="mix-blend-mode: multiply;"><path d="M395,56.21848739495788C587.5,56.21848739495788,587.5,240.99694423223838,780,240.99694423223838" stroke="#cccccc" stroke-width="1.359816653934301"/><title>A → no: 4</title></g><g style="mix-blend-mode: multiply;"><path d="M395,190.2578304048891C587.5,190.2578304048891,587.5,152.87815126050418,780,152.87815126050418" stroke="#cccccc" stroke-width="9.178762414056532"/><title>5 → yes: 27</title></g><g style="mix-blend-mode: multiply;"><path d="M395,123.10351413292575C587.5,123.10351413292575,587.5,110.72383498854087,780,110.72383498854087" stroke="#cccccc" stroke-width="7.818945760122231"/><title>7 → yes: 23</title></g><g style="mix-blend-mode: multiply;"><path d="M395,270.33040488922836C587.5,270.33040488922836,587.5,207.6107715813598,780,207.6107715813598" stroke="#cccccc" stroke-width="12.578304048892285"/><title>C → yes: 37</title></g><g style="mix-blend-mode: multiply;"><path d="M395,235.68372803666907C587.5,235.68372803666907,587.5,183.3040488922842,780,183.3040488922842" stroke="#bcbd22" stroke-width="10.878533231474409"/><title>14 → yes: 32</title></g><g style="mix-blend-mode: multiply;"><path d="M395,0.16997708174178763C587.5,0.16997708174178763,587.5,65.16997708174182,780,65.16997708174182" stroke="#cccccc" stroke-width="1"/><title>5 9 → yes: 1</title></g><g style="mix-blend-mode: multiply;"><path d="M395,288.5886172650878C587.5,288.5886172650878,587.5,220.52902979373567,780,220.52902979373567" stroke="#8c564b" stroke-width="13.258212375859435"/><title>13 → yes: 39</title></g><g style="mix-blend-mode: multiply;"><path d="M395,39.24942704354459C587.5,39.24942704354459,587.5,69.2494270435447,780,69.2494270435447" stroke="#ff7f0e" stroke-width="1.6997708174178763"/><title>1 → yes: 5</title></g><g style="mix-blend-mode: multiply;"><path d="M395,252.752100840336C587.5,252.752100840336,587.5,195.03246753246754,780,195.03246753246754" stroke="#17becf" stroke-width="12.578304048892285"/><title>15 → yes: 37</title></g><g style="mix-blend-mode: multiply;"><path d="M395,241.29297173414807C587.5,241.29297173414807,587.5,242.5267379679145,780,242.5267379679145" stroke="#bcbd22" stroke-width="1"/><title>14 → no: 1</title></g><g style="mix-blend-mode: multiply;"><path d="M395,304.12719633307864C587.5,304.12719633307864,587.5,231.0676088617265,780,231.0676088617265" stroke="#1f77b4" stroke-width="7.818945760122231"/><title> → yes: 23</title></g><g style="mix-blend-mode: multiply;"><path d="M395,54.34873949579821C587.5,54.34873949579821,587.5,74.00878533231474,780,74.00878533231474" stroke="#cccccc" stroke-width="2.379679144385027"/><title>A → yes: 7</title></g><g style="mix-blend-mode: multiply;"><path d="M395,21.699770817417736C587.5,21.699770817417736,587.5,66.69977081741787,780,66.69977081741787" stroke="#cccccc" stroke-width="1"/><title>5 7 → yes: 2</title></g><g style="mix-blend-mode: multiply;"><path d="M395,5.509931245225371C587.5,5.509931245225371,587.5,65.50993124522539,780,65.50993124522539" stroke="#cccccc" stroke-width="1"/><title>8 10 → yes: 1</title></g><g style="mix-blend-mode: multiply;"><path d="M395,74.3773873185637C587.5,74.3773873185637,587.5,82.6776165011459,780,82.6776165011459" stroke="#9467bd" stroke-width="6.119174942704355"/><title>12 → yes: 18</title></g><g style="mix-blend-mode: multiply;"><path d="M395,135.92245989304797C587.5,135.92245989304797,587.5,118.5427807486631,780,118.5427807486631" stroke="#cccccc" stroke-width="7.818945760122231"/><title>16 → yes: 23</title></g><g style="mix-blend-mode: multiply;"><path d="M395,77.60695187165769C587.5,77.60695187165769,587.5,241.84682964094733,780,241.84682964094733" stroke="#9467bd" stroke-width="1"/><title>12 → no: 1</title></g><g style="mix-blend-mode: multiply;"><path d="M395,89.40603514132916C587.5,89.40603514132916,587.5,242.18678380443092,780,242.18678380443092" stroke="#cccccc" stroke-width="1"/><title>D → no: 1</title></g><g style="mix-blend-mode: multiply;"><path d="M395,10.849885408708897C587.5,10.849885408708897,587.5,65.84988540870896,780,65.84988540870896" stroke="#7f7f7f" stroke-width="1"/><title>13 15 B → yes: 1</title></g><g style="mix-blend-mode: multiply;"><path d="M395,27.3796791443849C587.5,27.3796791443849,587.5,67.37967914438502,780,67.37967914438502" stroke="#cccccc" stroke-width="1"/><title>C D → yes: 2</title></g><g style="mix-blend-mode: multiply;"><path d="M395,47.988922841863904C587.5,47.988922841863904,587.5,240.14705882352945,780,240.14705882352945" stroke="#cccccc" stroke-width="1"/><title>B → no: 1</title></g><g style="mix-blend-mode: multiply;"><path d="M395,16.189839572192422C587.5,16.189839572192422,587.5,66.18983957219253,780,66.18983957219253" stroke="#cccccc" stroke-width="1"/><title>15 16 → yes: 1</title></g><g style="mix-blend-mode: multiply;"><path d="M395,33.05958747135207C587.5,33.05958747135207,587.5,68.05958747135217,780,68.05958747135217" stroke="#e377c2" stroke-width="1"/><title>13 15 → yes: 2</title></g><g style="mix-blend-mode: multiply;"><path d="M395,276.78953399541626C587.5,276.78953399541626,587.5,242.86669213139808,780,242.86669213139808" stroke="#cccccc" stroke-width="1"/><title>C → no: 1</title></g></g><g><text x="399" y="0.16997708174179138" text-anchor="start"><tspan alignment-baseline="middle" x="399" style="font-family: Arial, sans-serif; font-size: 10px; fill: black; font-weight: bold;">5 9</tspan></text><text x="399" y="5.509931245225346" text-anchor="start"><tspan alignment-baseline="middle" x="399" style="font-family: Arial, sans-serif; font-size: 10px; fill: black; font-weight: bold;">8 10</tspan></text><text x="399" y="10.849885408708872" text-anchor="start"><tspan alignment-baseline="middle" x="399" style="font-family: Arial, sans-serif; font-size: 10px; fill: black; font-weight: bold;">13 15 B</tspan></text><text x="399" y="16.189839572192398" text-anchor="start"><tspan alignment-baseline="middle" x="399" style="font-family: Arial, sans-serif; font-size: 10px; fill: black; font-weight: bold;">15 16</tspan></text><text x="399" y="21.699770817417743" text-anchor="start"><tspan alignment-baseline="middle" x="399" style="font-family: Arial, sans-serif; font-size: 10px; fill: black; font-weight: bold;">5 7</tspan></text><text x="399" y="27.37967914438491" text-anchor="start"><tspan alignment-baseline="middle" x="399" style="font-family: Arial, sans-serif; font-size: 10px; fill: black; font-weight: bold;">C D</tspan></text><text x="399" y="33.059587471352074" text-anchor="start"><tspan alignment-baseline="middle" x="399" style="font-family: Arial, sans-serif; font-size: 10px; fill: black; font-weight: bold;">13 15</tspan></text><text x="399" y="39.249427043544586" text-anchor="start"><tspan alignment-baseline="middle" x="399" style="font-family: Arial, sans-serif; font-size: 10px; fill: black; font-weight: bold;">1</tspan></text><text x="399" y="46.62910618792961" text-anchor="start"><tspan alignment-baseline="middle" x="399" style="font-family: Arial, sans-serif; font-size: 10px; fill: black; font-weight: bold;">B</tspan></text><text x="399" y="55.02864782276538" text-anchor="start"><tspan alignment-baseline="middle" x="399" style="font-family: Arial, sans-serif; font-size: 10px; fill: black; font-weight: bold;">A</tspan></text><text x="399" y="64.10809778456829" text-anchor="start"><tspan alignment-baseline="middle" x="399" style="font-family: Arial, sans-serif; font-size: 10px; fill: black; font-weight: bold;">2</tspan></text><text x="399" y="74.54736440030548" text-anchor="start"><tspan alignment-baseline="middle" x="399" style="font-family: Arial, sans-serif; font-size: 10px; fill: black; font-weight: bold;">12</tspan></text><text x="399" y="86.17647058823518" text-anchor="start"><tspan alignment-baseline="middle" x="399" style="font-family: Arial, sans-serif; font-size: 10px; fill: black; font-weight: bold;">D</tspan></text><text x="399" y="97.97555385790666" text-anchor="start"><tspan alignment-baseline="middle" x="399" style="font-family: Arial, sans-serif; font-size: 10px; fill: black; font-weight: bold;">6</tspan></text><text x="399" y="110.28456837280352" text-anchor="start"><tspan alignment-baseline="middle" x="399" style="font-family: Arial, sans-serif; font-size: 10px; fill: black; font-weight: bold;">8</tspan></text><text x="399" y="123.10351413292575" text-anchor="start"><tspan alignment-baseline="middle" x="399" style="font-family: Arial, sans-serif; font-size: 10px; fill: black; font-weight: bold;">7</tspan></text><text x="399" y="135.92245989304797" text-anchor="start"><tspan alignment-baseline="middle" x="399" style="font-family: Arial, sans-serif; font-size: 10px; fill: black; font-weight: bold;">16</tspan></text><text x="399" y="149.0813598166538" text-anchor="start"><tspan alignment-baseline="middle" x="399" style="font-family: Arial, sans-serif; font-size: 10px; fill: black; font-weight: bold;">11</tspan></text><text x="399" y="162.58021390374316" text-anchor="start"><tspan alignment-baseline="middle" x="399" style="font-family: Arial, sans-serif; font-size: 10px; fill: black; font-weight: bold;">9</tspan></text><text x="399" y="176.24904507257435" text-anchor="start"><tspan alignment-baseline="middle" x="399" style="font-family: Arial, sans-serif; font-size: 10px; fill: black; font-weight: bold;">3</tspan></text><text x="399" y="190.2578304048891" text-anchor="start"><tspan alignment-baseline="middle" x="399" style="font-family: Arial, sans-serif; font-size: 10px; fill: black; font-weight: bold;">5</tspan></text><text x="399" y="204.77654698242918" text-anchor="start"><tspan alignment-baseline="middle" x="399" style="font-family: Arial, sans-serif; font-size: 10px; fill: black; font-weight: bold;">10</tspan></text><text x="399" y="219.97517188693644" text-anchor="start"><tspan alignment-baseline="middle" x="399" style="font-family: Arial, sans-serif; font-size: 10px; fill: black; font-weight: bold;">4</tspan></text><text x="399" y="235.85370511841086" text-anchor="start"><tspan alignment-baseline="middle" x="399" style="font-family: Arial, sans-serif; font-size: 10px; fill: black; font-weight: bold;">14</tspan></text><text x="399" y="252.75210084033603" text-anchor="start"><tspan alignment-baseline="middle" x="399" style="font-family: Arial, sans-serif; font-size: 10px; fill: black; font-weight: bold;">15</tspan></text><text x="399" y="270.5003819709701" text-anchor="start"><tspan alignment-baseline="middle" x="399" style="font-family: Arial, sans-serif; font-size: 10px; fill: black; font-weight: bold;">C</tspan></text><text x="399" y="288.5886172650878" text-anchor="start"><tspan alignment-baseline="middle" x="399" style="font-family: Arial, sans-serif; font-size: 10px; fill: black; font-weight: bold;">13</tspan></text><text x="9" y="109.58365164247517" text-anchor="start"><tspan alignment-baseline="middle" x="9" style="font-family: Arial, sans-serif; font-size: 10px; fill: black; font-weight: bold;">2</tspan></text><text x="9" y="216.56990068754777" text-anchor="start"><tspan alignment-baseline="middle" x="9" style="font-family: Arial, sans-serif; font-size: 10px; fill: black; font-weight: bold;">1</tspan></text><text x="776" y="149.98854087089384" text-anchor="end"><tspan alignment-baseline="middle" x="776" style="font-family: Arial, sans-serif; font-size: 10px; fill: black; font-weight: bold;">yes</tspan></text><text x="9" y="396.98624904507255" text-anchor="start"><tspan alignment-baseline="middle" x="9" style="font-family: Arial, sans-serif; font-size: 10px; fill: black; font-weight: bold;">3</tspan></text><text x="776" y="377.48854087089387" text-anchor="end"><tspan alignment-baseline="middle" x="776" style="font-family: Arial, sans-serif; font-size: 10px; fill: black; font-weight: bold;">no</tspan></text><text x="399" y="440.10886172650874" text-anchor="start"><tspan alignment-baseline="middle" x="399" style="font-family: Arial, sans-serif; font-size: 10px; fill: black; font-weight: bold;"/></text></g><g><text x="392.5" y="-4" text-anchor="middle" style="font-family: Arial, sans-serif; font-size: 12px; fill: rgb(123, 123, 123); font-weight: bold;">Boat</text><text x="2.5" y="58.5" text-anchor="middle" style="font-family: Arial, sans-serif; font-size: 12px; fill: rgb(123, 123, 123); font-weight: bold;">Class</text><text x="782.5" y="61.00000000000003" text-anchor="middle" style="font-family: Arial, sans-serif; font-size: 12px; fill: rgb(123, 123, 123); font-weight: bold;">Survival</text></g></g></svg>